<?xml version="1.0" standalone="no"?>
<!DOCTYPE svg PUBLIC "-//W3C//DTD SVG 20010904//EN"
 "http://www.w3.org/TR/2001/REC-SVG-20010904/DTD/svg10.dtd">
<svg version="1.0" xmlns="http://www.w3.org/2000/svg"
 width="700.000000pt" height="700.000000pt" viewBox="0 0 700.000000 700.000000"
 preserveAspectRatio="xMidYMid meet">
<metadata>
Created by potrace 1.14, written by Peter Selinger 2001-2017
</metadata>
<g transform="translate(0.000000,700.000000) scale(0.100000,-0.100000)"
fill="#000000" stroke="none">
<path d="M1773 4689 l-212 -130 1 -738 c0 -781 2 -816 49 -961 27 -84 90 -209
142 -279 124 -169 338 -315 538 -366 97 -25 143 -30 289 -29 115 0 150 4 235
27 284 78 522 278 645 542 34 72 41 93 65 180 26 96 37 295 21 372 -3 16 -8
42 -11 58 -9 55 -13 69 -35 134 -171 508 -733 792 -1225 619 -60 -21 -195 -85
-205 -97 -5 -6 -54 -41 -75 -53 -7 -4 -10 139 -9 423 0 236 0 429 0 429 -1 -1
-96 -59 -213 -131z m932 -964 c167 -48 285 -147 366 -307 22 -43 37 -78 35
-78 -2 0 2 -20 9 -43 12 -39 13 -193 3 -237 -95 -386 -514 -571 -847 -374
-178 105 -279 282 -279 490 0 137 32 233 118 350 130 175 384 261 595 199z"/>
<path d="M4133 4777 c-29 -18 -122 -75 -208 -127 l-155 -95 0 -1146 0 -1147
23 -4 c12 -2 110 -3 217 -3 l195 1 2 570 c3 628 2 617 67 718 78 120 188 187
314 192 195 8 357 -114 406 -303 9 -35 13 -204 15 -608 1 -308 6 -562 11 -565
4 -3 100 -5 212 -5 l203 1 1 583 c1 320 -3 603 -8 629 -4 26 -10 58 -13 71
-21 117 -99 268 -189 368 -237 263 -655 341 -972 180 l-50 -25 1 374 c0 244
-3 374 -10 374 -5 -1 -34 -15 -62 -33z"/>
</g>
</svg>
